<?xml version="1.0" standalone="no"?><!DOCTYPE svg PUBLIC "-//W3C//DTD SVG 1.1//EN" "http://www.w3.org/Graphics/SVG/1.1/DTD/svg11.dtd"><svg t="1557216165541" class="icon" style="" viewBox="0 0 1024 1024" version="1.1" xmlns="http://www.w3.org/2000/svg" p-id="8428" xmlns:xlink="http://www.w3.org/1999/xlink" width="128" height="128"><defs><style type="text/css"></style></defs><path d="M987.136011 1022.975699c-3.071999 0-6.143998 0-9.215997-1.024-2.047999 1.024-4.095999 1.024-6.143999 1.024h-140.287958c-10.239997 0-18.431995-7.167998-18.431995-17.407995V172.574067a39.122812 39.122812 0 0 0-14.335996-28.732227l-80.895976-58.428218a38.911989 38.911989 0 0 0-31.743991-5.119999L345.0882 168.478068c-9.215997 2.047999-15.359995 11.263997-17.407995 19.455994v36.86399c0 19.455994-16.383995 35.870107-36.863989 35.870107-20.479994 0-36.863989-16.414113-36.86399-35.870107v-84.028211c0-10.239997 8.191998-20.479994 17.407995-23.551993L699.392095 1.415529c9.215997-3.071999 23.551993-1.024 31.743991 5.180234l140.287959 102.430087c8.191998 6.143998 14.335996 18.431995 14.335996 28.671992V934.85149c0 9.215997 8.191998 17.407995 18.431994 17.407995h66.559981c3.071999 0 5.119998 0 7.167998 1.023999 3.071999-1.024 6.143998-1.024 9.215997-1.023999 20.479994 0 36.863989 16.383995 36.863989 34.815989 0 19.51623-16.383995 35.900225-36.863989 35.900225zM587.776128 191.006061l138.23996 107.550086c8.191998 6.143998 14.335996 19.51623 14.335995 29.756227v677.25533a18.371759 18.371759 0 0 1-18.431994 18.431995H36.86429A36.743519 36.743519 0 0 1 0.000301 987.075474c0-20.479994 16.383995-36.863989 36.863989-36.863989h35.83999V391.830473c0-10.239997 8.191998-20.479994 17.407995-24.575993l465.919863-181.338299c10.84235-2.951529 22.407523-1.084235 31.74399 5.119998z m-99.32797 268.43851c0-10.239997-7.167998-16.383995-17.407995-14.335996l-262.143923 62.494099c-9.215997 2.047999-17.407995 12.287996-17.407995 22.527994v26.623992c0 10.239997 7.167998 16.44423 17.407995 14.335996l262.143923-63.487982c9.215997-2.047999 17.407995-12.287996 17.407995-22.588228v-25.599993z m0 126.042316c0-10.300232-7.167998-16.383995-17.407995-14.396231l-262.143923 63.548216c-9.215997 2.047999-17.407995 12.287996-17.407995 22.527994v26.684227c0 10.239997 7.167998 16.353878 17.407995 14.305878l262.143923-63.548216c9.215997-2.017882 17.407995-12.257879 17.407995-22.497876v-26.623992z m0 125.98208c0-10.239997-7.167998-16.383995-17.407995-14.335996l-262.143923 63.548217c-9.215997 2.047999-17.407995 12.287996-17.407995 22.527993v26.623993c0 10.239997 7.167998 16.383995 17.407995 14.396231l262.143923-63.548217c9.215997-2.047999 17.407995-12.348232 17.407995-22.588229v-26.623992z" p-id="8429"></path></svg>