<?xml version="1.0" standalone="no"?><!DOCTYPE svg PUBLIC "-//W3C//DTD SVG 1.1//EN" "http://www.w3.org/Graphics/SVG/1.1/DTD/svg11.dtd"><svg t="1542097198401" class="icon" style="" viewBox="0 0 1024 1024" version="1.1" xmlns="http://www.w3.org/2000/svg" p-id="2563" xmlns:xlink="http://www.w3.org/1999/xlink" width="128" height="128"><defs><style type="text/css"></style></defs><path d="M930.9184 102.4H92.2624C41.472 102.4 0.2048 143.9744 0 195.3792V307.2h1024V195.3792a93.952 93.952 0 0 0-27.4432-66.048A91.6992 91.6992 0 0 0 930.9184 102.4zM0 828.6208A92.8256 92.8256 0 0 0 92.2624 921.6h838.656c50.7904 0 92.0576-41.5744 92.2624-92.9792V409.6H0v419.0208z m837.8368-137.216h76.0832v87.2448h-76.0832v-87.2448z m-97.5872 0h75.7248v87.2448h-75.7248v-87.2448z m-93.4912 0h76.1344v87.2448h-75.264l-0.8704-87.2448z" p-id="2564"></path></svg>