<?xml version="1.0" standalone="no"?><!DOCTYPE svg PUBLIC "-//W3C//DTD SVG 1.1//EN" "http://www.w3.org/Graphics/SVG/1.1/DTD/svg11.dtd"><svg t="1557900948104" class="icon" style="" viewBox="0 0 1074 1024" version="1.1" xmlns="http://www.w3.org/2000/svg" p-id="3376" xmlns:xlink="http://www.w3.org/1999/xlink" width="134.25" height="128"><defs><style type="text/css"></style></defs><path d="M1062.641055 948.932869l-106.75131-107.238759A233.975474 233.975474 0 1 0 779.92069 922.610628a233.000576 233.000576 0 0 0 129.17396-38.995913l109.188555 109.676004a31.684179 31.684179 0 0 0 44.845299 0 31.684179 31.684179 0 0 0 0-44.845299zM779.92069 872.403391a184.255686 184.255686 0 1 1 183.280789-184.255686A183.768237 183.768237 0 0 1 779.92069 872.403391z m156.958548-633.683577c0-6.824285-11.211325-10.723876-19.497957-15.110916L476.240023 2.794545a23.884996 23.884996 0 0 0-22.42265 0L78.969165 191.437271a27.297139 27.297139 0 0 0 0 48.74489l396.783409 235.437821a74.579682 74.579682 0 0 0 75.067131 0L877.410471 291.851745v115.525391a24.372445 24.372445 0 0 0 24.372446 24.372445h6.336835a24.372445 24.372445 0 0 0 24.372446-24.372445V243.106855a4.38704 4.38704 0 0 0 0-3.412143zM633.686019 900.675427a24.859894 24.859894 0 0 0-34.608872-9.261529l-97.489781 57.518971-10.236427 5.361938v-359.737292a66.293051 66.293051 0 0 0-34.121424-58.981318L36.561111 287.952154a24.372445 24.372445 0 0 0-36.558668 20.960303v421.643302a24.859894 24.859894 0 0 0 11.698773 21.447752s429.929934 261.272613 438.704015 264.197307a32.659077 32.659077 0 0 0 31.684179 0l141.847631-80.916519a23.884996 23.884996 0 0 0 9.748978-34.121423z m-323.178624-362.174536a24.859894 24.859894 0 0 1-33.633974 8.286631l-146.234672-88.228251a24.859894 24.859894 0 0 1-8.286631-34.121424 24.859894 24.859894 0 0 1 33.633974-8.286631l146.234672 88.228252a24.859894 24.859894 0 0 1 8.286631 34.121423z m0 0" p-id="3377"></path></svg>